<svg width="170" height="41" xmlns="http://www.w3.org/2000/svg" fill="none">

 <g>
  <title>Layer 1</title>
  <path id="svg_10" fill="#2563eb" class="ccustom" d="m20.6841,40.138c11.0457,0 20,-8.9543 20,-20c0,-11.04566 -8.9543,-19.99997 -20,-19.99997c-11.04573,0 -20.00002,8.95431 -20.00002,19.99997c0,11.0457 8.95429,20 20.00002,20zm6.2393,-30.68313c0.3037,-1.07879 -0.7432,-1.71671 -1.6993,-1.03554l-13.3469,9.50827c-1.0369,0.7387 -0.8738,2.2104 0.245,2.2104l3.5146,0l0,-0.0272l6.8498,0l-5.5813,1.9693l-2.4605,8.7411c-0.3037,1.0788 0.7431,1.7167 1.6993,1.0355l13.3469,-9.5082c1.0369,-0.7387 0.8737,-2.2105 -0.245,-2.2105l-5.3298,0l3.0072,-10.68313z" clip-rule="evenodd" fill-rule="evenodd"/>
  <text transform="matrix(1.49575 0 0 1 -24.3563 0)" stroke="null" font-weight="bold" xml:space="preserve" text-anchor="start" font-family="'sans-serif'" font-size="30" stroke-width="5" id="svg_12" y="30" x="50.99999" fill="#2563eb">Jira</text>
 </g>
</svg>